<svg xmlns="http://www.w3.org/2000/svg" width="1100" height="560" viewBox="0 0 1100 560">
  <rect width="1100" height="560" fill="#F8FAFC"/>
  <rect x="24" y="22" width="1052" height="516" rx="18" fill="#FFFFFF" stroke="#D9E2EC"/>
  <text x="90" y="54" font-size="28" font-weight="800" fill="#0B1320">Net PnL by Sentiment</text>
  <text x="90" y="78" font-size="14" fill="#52606D">Absolute net PnL by market sentiment classification</text>
  <line x1="90" y1="466.0" x2="1050" y2="466.0" stroke="#E2E8F0" stroke-width="1"/><text x="76" y="470.0" text-anchor="end" font-size="12" fill="#52606D">$0.00</text><line x1="90" y1="373.5" x2="1050" y2="373.5" stroke="#E2E8F0" stroke-width="1"/><text x="76" y="377.5" text-anchor="end" font-size="12" fill="#52606D">$963.1K</text><line x1="90" y1="281.0" x2="1050" y2="281.0" stroke="#E2E8F0" stroke-width="1"/><text x="76" y="285.0" text-anchor="end" font-size="12" fill="#52606D">$1.93M</text><line x1="90" y1="188.5" x2="1050" y2="188.5" stroke="#E2E8F0" stroke-width="1"/><text x="76" y="192.5" text-anchor="end" font-size="12" fill="#52606D">$2.89M</text><line x1="90" y1="96.0" x2="1050" y2="96.0" stroke="#E2E8F0" stroke-width="1"/><text x="76" y="100.0" text-anchor="end" font-size="12" fill="#52606D">$3.85M</text>
  <line x1="90" y1="466" x2="1050" y2="466" stroke="#CBD5E1" stroke-width="1.5"/>
  <rect x="90.0" y="397.3" width="176.0" height="68.7" rx="8" fill="#315A7D"/><text x="178.0" y="387.3" text-anchor="middle" font-size="13" font-weight="700" fill="#0B1320">$715.2K</text><text x="178.0" y="518" text-anchor="middle" font-size="13" fill="#334155">Extreme Fear</text><rect x="286.0" y="152.4" width="176.0" height="313.6" rx="8" fill="#00A676"/><text x="374.0" y="142.4" text-anchor="middle" font-size="13" font-weight="700" fill="#0B1320">$3.26M</text><text x="374.0" y="518" text-anchor="middle" font-size="13" fill="#334155">Fear</text><rect x="482.0" y="345.6" width="176.0" height="120.4" rx="8" fill="#9B5DE5"/><text x="570.0" y="335.6" text-anchor="middle" font-size="13" font-weight="700" fill="#0B1320">$1.25M</text><text x="570.0" y="518" text-anchor="middle" font-size="13" fill="#334155">Neutral</text><rect x="678.0" y="265.6" width="176.0" height="200.4" rx="8" fill="#F26D3D"/><text x="766.0" y="255.6" text-anchor="middle" font-size="13" font-weight="700" fill="#0B1320">$2.09M</text><text x="766.0" y="518" text-anchor="middle" font-size="13" fill="#334155">Greed</text><rect x="874.0" y="207.8" width="176.0" height="258.2" rx="8" fill="#19324A"/><text x="962.0" y="197.8" text-anchor="middle" font-size="13" font-weight="700" fill="#0B1320">$2.69M</text><text x="962.0" y="518" text-anchor="middle" font-size="13" fill="#334155">Extreme Greed</text>
</svg>