<svg xmlns="http://www.w3.org/2000/svg" width="1100" height="560" viewBox="0 0 1100 560">
  <rect width="1100" height="560" fill="#F8FAFC"/>
  <rect x="24" y="22" width="1052" height="516" rx="18" fill="#FFFFFF" stroke="#D9E2EC"/>
  <text x="90" y="54" font-size="28" font-weight="800" fill="#0B1320">Top Coins by Net PnL</text>
  <text x="90" y="78" font-size="14" fill="#52606D">Highest contributing traded coins across all sentiment regimes</text>
  <line x1="90" y1="466.0" x2="1050" y2="466.0" stroke="#E2E8F0" stroke-width="1"/><text x="76" y="470.0" text-anchor="end" font-size="12" fill="#52606D">$0.00</text><line x1="90" y1="373.5" x2="1050" y2="373.5" stroke="#E2E8F0" stroke-width="1"/><text x="76" y="377.5" text-anchor="end" font-size="12" fill="#52606D">$819.5K</text><line x1="90" y1="281.0" x2="1050" y2="281.0" stroke="#E2E8F0" stroke-width="1"/><text x="76" y="285.0" text-anchor="end" font-size="12" fill="#52606D">$1.64M</text><line x1="90" y1="188.5" x2="1050" y2="188.5" stroke="#E2E8F0" stroke-width="1"/><text x="76" y="192.5" text-anchor="end" font-size="12" fill="#52606D">$2.46M</text><line x1="90" y1="96.0" x2="1050" y2="96.0" stroke="#E2E8F0" stroke-width="1"/><text x="76" y="100.0" text-anchor="end" font-size="12" fill="#52606D">$3.28M</text>
  <line x1="90" y1="466" x2="1050" y2="466" stroke="#CBD5E1" stroke-width="1.5"/>
  <rect x="90.0" y="152.4" width="102.5" height="313.6" rx="8" fill="#315A7D"/><text x="141.2" y="142.4" text-anchor="middle" font-size="13" font-weight="700" fill="#0B1320">$2.78M</text><text x="141.2" y="518" text-anchor="middle" font-size="13" fill="#334155">@107</text><rect x="212.5" y="248.9" width="102.5" height="217.1" rx="8" fill="#00A676"/><text x="263.8" y="238.9" text-anchor="middle" font-size="13" font-weight="700" fill="#0B1320">$1.92M</text><text x="263.8" y="518" text-anchor="middle" font-size="13" fill="#334155">HYPE</text><rect x="335.0" y="284.1" width="102.5" height="181.9" rx="8" fill="#9B5DE5"/><text x="386.2" y="274.1" text-anchor="middle" font-size="13" font-weight="700" fill="#0B1320">$1.61M</text><text x="386.2" y="518" text-anchor="middle" font-size="13" fill="#334155">SOL</text><rect x="457.5" y="319.6" width="102.5" height="146.4" rx="8" fill="#F26D3D"/><text x="508.8" y="309.6" text-anchor="middle" font-size="13" font-weight="700" fill="#0B1320">$1.30M</text><text x="508.8" y="518" text-anchor="middle" font-size="13" fill="#334155">ETH</text><rect x="580.0" y="383.7" width="102.5" height="82.3" rx="8" fill="#19324A"/><text x="631.2" y="373.7" text-anchor="middle" font-size="13" font-weight="700" fill="#0B1320">$728.8K</text><text x="631.2" y="518" text-anchor="middle" font-size="13" fill="#334155">BTC</text><rect x="702.5" y="422.1" width="102.5" height="43.9" rx="8" fill="#5B7C99"/><text x="753.8" y="412.1" text-anchor="middle" font-size="13" font-weight="700" fill="#0B1320">$389.3K</text><text x="753.8" y="518" text-anchor="middle" font-size="13" fill="#334155">MELANIA</text><rect x="825.0" y="441.5" width="102.5" height="24.5" rx="8" fill="#2A9D8F"/><text x="876.2" y="431.5" text-anchor="middle" font-size="13" font-weight="700" fill="#0B1320">$217.1K</text><text x="876.2" y="518" text-anchor="middle" font-size="13" fill="#334155">ENA</text><rect x="947.5" y="443.7" width="102.5" height="22.3" rx="8" fill="#315A7D"/><text x="998.8" y="433.7" text-anchor="middle" font-size="13" font-weight="700" fill="#0B1320">$197.3K</text><text x="998.8" y="518" text-anchor="middle" font-size="13" fill="#334155">SUI</text>
</svg>